<mxfile host="65bd71144e">
    <diagram id="nXhcNZrQq1M1uD5povXW" name="Page-1">
        <mxGraphModel dx="1146" dy="793" grid="1" gridSize="10" guides="1" tooltips="1" connect="1" arrows="1" fold="1" page="1" pageScale="1" pageWidth="827" pageHeight="1169" math="0" shadow="0">
            <root>
                <mxCell id="0"/>
                <mxCell id="1" parent="0"/>
                <mxCell id="OJPGdNxAV1vjpA2we-XX-12" value="" style="rounded=0;whiteSpace=wrap;html=1;align=center;arcSize=6;" parent="1" vertex="1">
                    <mxGeometry x="256.51" y="399.5" width="110" height="90.5" as="geometry"/>
                </mxCell>
                <mxCell id="OJPGdNxAV1vjpA2we-XX-10" value="" style="rounded=0;whiteSpace=wrap;html=1;align=center;arcSize=6;" parent="1" vertex="1">
                    <mxGeometry x="366.51" y="399" width="110" height="91" as="geometry"/>
                </mxCell>
                <mxCell id="RnjcOqFYlqcYZKxFGFPn-20" value="" style="rounded=0;whiteSpace=wrap;html=1;align=center;arcSize=6;" parent="1" vertex="1">
                    <mxGeometry x="476.51" y="399" width="110" height="91" as="geometry"/>
                </mxCell>
                <mxCell id="LNvytNpk7kZyI1cy2T5B-1" value="Bruger" style="shape=umlActor;verticalLabelPosition=bottom;verticalAlign=top;html=1;outlineConnect=0;" parent="1" vertex="1">
                    <mxGeometry x="81.25" y="50" width="30" height="60" as="geometry"/>
                </mxCell>
                <mxCell id="LNvytNpk7kZyI1cy2T5B-25" style="edgeStyle=orthogonalEdgeStyle;rounded=0;orthogonalLoop=1;jettySize=auto;html=1;endArrow=none;endFill=0;strokeColor=#f0f0f0;fontSize=9;" parent="1" source="LNvytNpk7kZyI1cy2T5B-2" target="LNvytNpk7kZyI1cy2T5B-1" edge="1">
                    <mxGeometry relative="1" as="geometry"/>
                </mxCell>
                <mxCell id="LNvytNpk7kZyI1cy2T5B-2" value="Bruger indtaster brugernavn" style="ellipse;whiteSpace=wrap;html=1;" parent="1" vertex="1">
                    <mxGeometry x="131.25" y="46.5" width="101.25" height="67.5" as="geometry"/>
                </mxCell>
                <mxCell id="LNvytNpk7kZyI1cy2T5B-3" value="Systemet sender brugeren til lobby" style="ellipse;whiteSpace=wrap;html=1;" parent="1" vertex="1">
                    <mxGeometry x="348.88" y="47.75" width="101.12" height="72.25" as="geometry"/>
                </mxCell>
                <mxCell id="LNvytNpk7kZyI1cy2T5B-26" value="Velkomst" style="text;html=1;strokeColor=none;fillColor=none;align=left;verticalAlign=middle;whiteSpace=wrap;rounded=0;fontSize=17;" parent="1" vertex="1">
                    <mxGeometry x="81.25" y="10" width="110" height="30" as="geometry"/>
                </mxCell>
                <mxCell id="RnjcOqFYlqcYZKxFGFPn-1" value="" style="rounded=0;whiteSpace=wrap;html=1;align=center;arcSize=6;" parent="1" vertex="1">
                    <mxGeometry x="586.51" y="399" width="110" height="91" as="geometry"/>
                </mxCell>
                <mxCell id="RnjcOqFYlqcYZKxFGFPn-2" value="" style="rounded=0;whiteSpace=wrap;html=1;align=center;arcSize=6;" parent="1" vertex="1">
                    <mxGeometry x="696.51" y="399" width="110" height="91" as="geometry"/>
                </mxCell>
                <mxCell id="RnjcOqFYlqcYZKxFGFPn-3" value="Bruger" style="shape=umlActor;verticalLabelPosition=bottom;verticalAlign=top;html=1;outlineConnect=0;" parent="1" vertex="1">
                    <mxGeometry x="81.25" y="232.5" width="30" height="60" as="geometry"/>
                </mxCell>
                <mxCell id="RnjcOqFYlqcYZKxFGFPn-5" value="Systemet sætter en timer i gang" style="ellipse;whiteSpace=wrap;html=1;" parent="1" vertex="1">
                    <mxGeometry x="511.19999999999993" y="237.5" width="82.5" height="55" as="geometry"/>
                </mxCell>
                <mxCell id="RnjcOqFYlqcYZKxFGFPn-6" value="Brugeren vurderer sine kort" style="ellipse;whiteSpace=wrap;html=1;fontSize=10;" parent="1" vertex="1">
                    <mxGeometry x="318.34000000000003" y="230" width="97.5" height="65" as="geometry"/>
                </mxCell>
                <mxCell id="RnjcOqFYlqcYZKxFGFPn-14" value="Brugeren vælger Call. og spillet fortsætter til næste bruger" style="ellipse;whiteSpace=wrap;html=1;fontSize=10;" parent="1" vertex="1">
                    <mxGeometry x="696.51" y="232.5" width="97.5" height="65" as="geometry"/>
                </mxCell>
                <mxCell id="RnjcOqFYlqcYZKxFGFPn-15" value="&amp;lt;&amp;lt;include&amp;gt;&amp;gt;" style="edgeStyle=none;html=1;endArrow=open;verticalAlign=bottom;dashed=1;labelBackgroundColor=none;exitX=1;exitY=0.5;exitDx=0;exitDy=0;entryX=0;entryY=0.5;entryDx=0;entryDy=0;" parent="1" source="OJPGdNxAV1vjpA2we-XX-2" target="RnjcOqFYlqcYZKxFGFPn-6" edge="1">
                    <mxGeometry width="160" relative="1" as="geometry">
                        <mxPoint x="250" y="300" as="sourcePoint"/>
                        <mxPoint x="470" y="310" as="targetPoint"/>
                    </mxGeometry>
                </mxCell>
                <mxCell id="RnjcOqFYlqcYZKxFGFPn-18" value="Betting" style="text;html=1;strokeColor=none;fillColor=none;align=left;verticalAlign=middle;whiteSpace=wrap;rounded=0;fontSize=17;" parent="1" vertex="1">
                    <mxGeometry x="81.25" y="200" width="200" height="30" as="geometry"/>
                </mxCell>
                <mxCell id="RnjcOqFYlqcYZKxFGFPn-22" value="brugeren indtaster et beløb eller trækker i en slider. og trykker Raise" style="ellipse;whiteSpace=wrap;html=1;fontSize=9;" parent="1" vertex="1">
                    <mxGeometry x="699.01" y="410" width="105" height="70" as="geometry"/>
                </mxCell>
                <mxCell id="RnjcOqFYlqcYZKxFGFPn-25" value="brugeren lader tiden udløbe. og folder automatisk." style="ellipse;whiteSpace=wrap;html=1;fontSize=9;" parent="1" vertex="1">
                    <mxGeometry x="369.01" y="410" width="105" height="70" as="geometry"/>
                </mxCell>
                <mxCell id="RnjcOqFYlqcYZKxFGFPn-27" value="brugeren trykker på fold, og er ikke med i efterfølgende omgang" style="ellipse;whiteSpace=wrap;html=1;fontSize=9;" parent="1" vertex="1">
                    <mxGeometry x="479.01" y="410" width="105" height="70" as="geometry"/>
                </mxCell>
                <mxCell id="OJPGdNxAV1vjpA2we-XX-22" style="edgeStyle=orthogonalEdgeStyle;rounded=0;orthogonalLoop=1;jettySize=auto;html=1;endArrow=none;endFill=0;" parent="1" source="RnjcOqFYlqcYZKxFGFPn-144" target="OJPGdNxAV1vjpA2we-XX-17" edge="1">
                    <mxGeometry relative="1" as="geometry">
                        <Array as="points">
                            <mxPoint x="128.07" y="634"/>
                            <mxPoint x="128.07" y="634"/>
                        </Array>
                    </mxGeometry>
                </mxCell>
                <mxCell id="RnjcOqFYlqcYZKxFGFPn-144" value="Bruger" style="shape=umlActor;verticalLabelPosition=bottom;verticalAlign=top;html=1;outlineConnect=0;" parent="1" vertex="1">
                    <mxGeometry x="79.32" y="600" width="30" height="60" as="geometry"/>
                </mxCell>
                <mxCell id="RnjcOqFYlqcYZKxFGFPn-146" value="brugeren klikker på forlad bord knappen" style="ellipse;whiteSpace=wrap;html=1;" parent="1" vertex="1">
                    <mxGeometry x="316.40999999999997" y="600.01" width="101.25" height="67.5" as="geometry"/>
                </mxCell>
                <mxCell id="RnjcOqFYlqcYZKxFGFPn-147" value="dialog boks åbnes med bekræft eller fortryd knap" style="ellipse;whiteSpace=wrap;html=1;fontSize=10;" parent="1" vertex="1">
                    <mxGeometry x="498.07000000000005" y="601.8800000000001" width="95.63" height="63.75" as="geometry"/>
                </mxCell>
                <mxCell id="RnjcOqFYlqcYZKxFGFPn-149" value="" style="rounded=0;whiteSpace=wrap;html=1;align=center;arcSize=6;" parent="1" vertex="1">
                    <mxGeometry x="348.07" y="720" width="290" height="121" as="geometry"/>
                </mxCell>
                <mxCell id="RnjcOqFYlqcYZKxFGFPn-150" value="Alternativ" style="text;html=1;strokeColor=none;fillColor=none;align=center;verticalAlign=middle;whiteSpace=wrap;rounded=0;" parent="1" vertex="1">
                    <mxGeometry x="348.07" y="720" width="70" height="20" as="geometry"/>
                </mxCell>
                <mxCell id="RnjcOqFYlqcYZKxFGFPn-153" value="Forlad bord" style="text;html=1;strokeColor=none;fillColor=none;align=left;verticalAlign=middle;whiteSpace=wrap;rounded=0;fontSize=17;" parent="1" vertex="1">
                    <mxGeometry x="80.57" y="560" width="110" height="30" as="geometry"/>
                </mxCell>
                <mxCell id="RnjcOqFYlqcYZKxFGFPn-156" value="brugeren klikker på bekræft" style="ellipse;whiteSpace=wrap;html=1;fontSize=10;" parent="1" vertex="1">
                    <mxGeometry x="668.07" y="601.8800000000001" width="95.63" height="63.75" as="geometry"/>
                </mxCell>
                <mxCell id="RnjcOqFYlqcYZKxFGFPn-157" value="&amp;lt;&amp;lt;include&amp;gt;&amp;gt;" style="edgeStyle=none;html=1;endArrow=open;verticalAlign=bottom;dashed=1;labelBackgroundColor=none;exitX=1;exitY=0.5;exitDx=0;exitDy=0;entryX=0;entryY=0.5;entryDx=0;entryDy=0;" parent="1" source="RnjcOqFYlqcYZKxFGFPn-147" target="RnjcOqFYlqcYZKxFGFPn-156" edge="1">
                    <mxGeometry width="160" relative="1" as="geometry">
                        <mxPoint x="670.1600000000003" y="757.5" as="sourcePoint"/>
                        <mxPoint x="743.2799999999996" y="757.5050000000001" as="targetPoint"/>
                    </mxGeometry>
                </mxCell>
                <mxCell id="RnjcOqFYlqcYZKxFGFPn-158" value="brugeren videresendes til lobby" style="ellipse;whiteSpace=wrap;html=1;fontSize=10;" parent="1" vertex="1">
                    <mxGeometry x="668.0699999999999" y="720" width="95.63" height="63.75" as="geometry"/>
                </mxCell>
                <mxCell id="RnjcOqFYlqcYZKxFGFPn-161" value="&lt;span style=&quot;font-size: 10px&quot;&gt;brugeren klikker på fortryd&lt;/span&gt;" style="ellipse;whiteSpace=wrap;html=1;fontSize=9;" parent="1" vertex="1">
                    <mxGeometry x="366.08000000000004" y="762.5" width="97.5" height="66.5" as="geometry"/>
                </mxCell>
                <mxCell id="RnjcOqFYlqcYZKxFGFPn-162" value="&lt;span style=&quot;font-size: 10px&quot;&gt;dialog boksen lukker.&lt;/span&gt;" style="ellipse;whiteSpace=wrap;html=1;fontSize=9;" parent="1" vertex="1">
                    <mxGeometry x="534.83" y="762.5" width="97.5" height="66.5" as="geometry"/>
                </mxCell>
                <mxCell id="OJPGdNxAV1vjpA2we-XX-1" value="&amp;lt;&amp;lt;extend&amp;gt;&amp;gt;" style="edgeStyle=none;html=1;startArrow=open;endArrow=none;startSize=12;verticalAlign=bottom;dashed=1;labelBackgroundColor=none;entryX=0;entryY=0.5;entryDx=0;entryDy=0;exitX=1;exitY=0.5;exitDx=0;exitDy=0;" parent="1" source="LNvytNpk7kZyI1cy2T5B-2" target="LNvytNpk7kZyI1cy2T5B-3" edge="1">
                    <mxGeometry width="160" relative="1" as="geometry">
                        <mxPoint x="265" y="105" as="sourcePoint"/>
                        <mxPoint x="425" y="105" as="targetPoint"/>
                    </mxGeometry>
                </mxCell>
                <mxCell id="OJPGdNxAV1vjpA2we-XX-2" value="Betting" style="ellipse;whiteSpace=wrap;html=1;" parent="1" vertex="1">
                    <mxGeometry x="130" y="230" width="92.5" height="60" as="geometry"/>
                </mxCell>
                <mxCell id="OJPGdNxAV1vjpA2we-XX-3" value="Extends" style="endArrow=block;endSize=16;endFill=0;html=1;exitX=1;exitY=0.5;exitDx=0;exitDy=0;" parent="1" source="RnjcOqFYlqcYZKxFGFPn-6" target="RnjcOqFYlqcYZKxFGFPn-5" edge="1">
                    <mxGeometry width="160" relative="1" as="geometry">
                        <mxPoint x="230" y="177" as="sourcePoint"/>
                        <mxPoint x="370" y="320" as="targetPoint"/>
                    </mxGeometry>
                </mxCell>
                <mxCell id="OJPGdNxAV1vjpA2we-XX-4" value="&amp;lt;&amp;lt;include&amp;gt;&amp;gt;" style="edgeStyle=none;html=1;endArrow=open;verticalAlign=bottom;dashed=1;labelBackgroundColor=none;entryX=0;entryY=0.5;entryDx=0;entryDy=0;exitX=1;exitY=0.5;exitDx=0;exitDy=0;" parent="1" source="RnjcOqFYlqcYZKxFGFPn-5" target="RnjcOqFYlqcYZKxFGFPn-14" edge="1">
                    <mxGeometry width="160" relative="1" as="geometry">
                        <mxPoint x="400" y="200" as="sourcePoint"/>
                        <mxPoint x="560" y="190" as="targetPoint"/>
                    </mxGeometry>
                </mxCell>
                <mxCell id="OJPGdNxAV1vjpA2we-XX-9" value="Hvis brugeren har smoking gun position, trykkes på check" style="ellipse;whiteSpace=wrap;html=1;fontSize=9;" parent="1" vertex="1">
                    <mxGeometry x="589.01" y="410" width="105" height="70" as="geometry"/>
                </mxCell>
                <mxCell id="OJPGdNxAV1vjpA2we-XX-11" value="Brugeren klikker på forlad bord" style="ellipse;whiteSpace=wrap;html=1;fontSize=9;" parent="1" vertex="1">
                    <mxGeometry x="259.01000000000005" y="410" width="105" height="70" as="geometry"/>
                </mxCell>
                <mxCell id="OJPGdNxAV1vjpA2we-XX-15" value="Extends" style="endArrow=block;endSize=16;endFill=0;html=1;exitX=1;exitY=0.5;exitDx=0;exitDy=0;" parent="1" source="RnjcOqFYlqcYZKxFGFPn-146" target="RnjcOqFYlqcYZKxFGFPn-147" edge="1">
                    <mxGeometry width="160" relative="1" as="geometry">
                        <mxPoint x="492.65999999999997" y="787.5" as="sourcePoint"/>
                        <mxPoint x="652.66" y="787.5" as="targetPoint"/>
                    </mxGeometry>
                </mxCell>
                <mxCell id="OJPGdNxAV1vjpA2we-XX-16" value="Extends" style="endArrow=block;endSize=16;endFill=0;html=1;exitX=0.5;exitY=1;exitDx=0;exitDy=0;entryX=0.5;entryY=0;entryDx=0;entryDy=0;" parent="1" source="RnjcOqFYlqcYZKxFGFPn-156" target="RnjcOqFYlqcYZKxFGFPn-158" edge="1">
                    <mxGeometry width="160" relative="1" as="geometry">
                        <mxPoint x="613.6550000000001" y="751.88" as="sourcePoint"/>
                        <mxPoint x="613.6550000000001" y="831.88" as="targetPoint"/>
                    </mxGeometry>
                </mxCell>
                <mxCell id="OJPGdNxAV1vjpA2we-XX-17" value="Forlad bord" style="ellipse;whiteSpace=wrap;html=1;" parent="1" vertex="1">
                    <mxGeometry x="139.99999999999994" y="598.13" width="101.25" height="67.5" as="geometry"/>
                </mxCell>
                <mxCell id="OJPGdNxAV1vjpA2we-XX-18" value="&amp;lt;&amp;lt;include&amp;gt;&amp;gt;" style="edgeStyle=none;html=1;endArrow=open;verticalAlign=bottom;dashed=1;labelBackgroundColor=none;exitX=1;exitY=0.5;exitDx=0;exitDy=0;entryX=0;entryY=0.5;entryDx=0;entryDy=0;" parent="1" source="OJPGdNxAV1vjpA2we-XX-17" target="RnjcOqFYlqcYZKxFGFPn-146" edge="1">
                    <mxGeometry width="160" relative="1" as="geometry">
                        <mxPoint x="234.64000000000044" y="767.505" as="sourcePoint"/>
                        <mxPoint x="346.94999999999584" y="620.005" as="targetPoint"/>
                    </mxGeometry>
                </mxCell>
                <mxCell id="OJPGdNxAV1vjpA2we-XX-19" value="&amp;lt;&amp;lt;include&amp;gt;&amp;gt;" style="edgeStyle=none;html=1;endArrow=open;verticalAlign=bottom;dashed=1;labelBackgroundColor=none;entryX=0.5;entryY=0;entryDx=0;entryDy=0;exitX=0.5;exitY=1;exitDx=0;exitDy=0;" parent="1" source="RnjcOqFYlqcYZKxFGFPn-147" target="RnjcOqFYlqcYZKxFGFPn-161" edge="1">
                    <mxGeometry width="160" relative="1" as="geometry">
                        <mxPoint x="488.07" y="699" as="sourcePoint"/>
                        <mxPoint x="547.4000000000011" y="699.3199999999999" as="targetPoint"/>
                    </mxGeometry>
                </mxCell>
                <mxCell id="OJPGdNxAV1vjpA2we-XX-21" value="Extends" style="endArrow=block;endSize=16;endFill=0;html=1;exitX=1;exitY=0.5;exitDx=0;exitDy=0;entryX=0;entryY=0.5;entryDx=0;entryDy=0;" parent="1" source="RnjcOqFYlqcYZKxFGFPn-161" target="RnjcOqFYlqcYZKxFGFPn-162" edge="1">
                    <mxGeometry width="160" relative="1" as="geometry">
                        <mxPoint x="454.41999999999877" y="820" as="sourcePoint"/>
                        <mxPoint x="534.8299999999996" y="819.9950000000001" as="targetPoint"/>
                    </mxGeometry>
                </mxCell>
                <mxCell id="OJPGdNxAV1vjpA2we-XX-23" value="&amp;lt;&amp;lt;include&amp;gt;&amp;gt;" style="edgeStyle=none;html=1;endArrow=open;verticalAlign=bottom;dashed=1;labelBackgroundColor=none;entryX=0.5;entryY=0;entryDx=0;entryDy=0;exitX=0.5;exitY=1;exitDx=0;exitDy=0;" parent="1" source="RnjcOqFYlqcYZKxFGFPn-5" target="RnjcOqFYlqcYZKxFGFPn-2" edge="1">
                    <mxGeometry width="160" relative="1" as="geometry">
                        <mxPoint x="565.2600000000018" y="329.9999999999999" as="sourcePoint"/>
                        <mxPoint x="668.0700000000002" y="329.9999999999999" as="targetPoint"/>
                    </mxGeometry>
                </mxCell>
                <mxCell id="OJPGdNxAV1vjpA2we-XX-24" value="&amp;lt;&amp;lt;include&amp;gt;&amp;gt;" style="edgeStyle=none;html=1;endArrow=open;verticalAlign=bottom;dashed=1;labelBackgroundColor=none;entryX=0.5;entryY=0;entryDx=0;entryDy=0;exitX=0.5;exitY=1;exitDx=0;exitDy=0;" parent="1" source="RnjcOqFYlqcYZKxFGFPn-5" target="RnjcOqFYlqcYZKxFGFPn-1" edge="1">
                    <mxGeometry width="160" relative="1" as="geometry">
                        <mxPoint x="484.04999999999984" y="297.4999999999999" as="sourcePoint"/>
                        <mxPoint x="683.11" y="404.0000000000001" as="targetPoint"/>
                    </mxGeometry>
                </mxCell>
                <mxCell id="OJPGdNxAV1vjpA2we-XX-25" value="&amp;lt;&amp;lt;include&amp;gt;&amp;gt;" style="edgeStyle=none;html=1;endArrow=open;verticalAlign=bottom;dashed=1;labelBackgroundColor=none;entryX=0.5;entryY=0;entryDx=0;entryDy=0;exitX=0.5;exitY=1;exitDx=0;exitDy=0;" parent="1" source="RnjcOqFYlqcYZKxFGFPn-5" target="RnjcOqFYlqcYZKxFGFPn-20" edge="1">
                    <mxGeometry width="160" relative="1" as="geometry">
                        <mxPoint x="394.64" y="309.7499999999999" as="sourcePoint"/>
                        <mxPoint x="593.6999999999999" y="416.2500000000001" as="targetPoint"/>
                    </mxGeometry>
                </mxCell>
                <mxCell id="OJPGdNxAV1vjpA2we-XX-26" value="&amp;lt;&amp;lt;include&amp;gt;&amp;gt;" style="edgeStyle=none;html=1;endArrow=open;verticalAlign=bottom;dashed=1;labelBackgroundColor=none;exitX=0.5;exitY=1;exitDx=0;exitDy=0;entryX=0.5;entryY=0;entryDx=0;entryDy=0;" parent="1" source="RnjcOqFYlqcYZKxFGFPn-5" target="OJPGdNxAV1vjpA2we-XX-12" edge="1">
                    <mxGeometry width="160" relative="1" as="geometry">
                        <mxPoint x="335.76999999999987" y="319.75" as="sourcePoint"/>
                        <mxPoint x="290" y="350" as="targetPoint"/>
                    </mxGeometry>
                </mxCell>
                <mxCell id="OJPGdNxAV1vjpA2we-XX-27" value="&amp;lt;&amp;lt;include&amp;gt;&amp;gt;" style="edgeStyle=none;html=1;endArrow=open;verticalAlign=bottom;dashed=1;labelBackgroundColor=none;entryX=0.5;entryY=0;entryDx=0;entryDy=0;exitX=0.5;exitY=1;exitDx=0;exitDy=0;" parent="1" source="RnjcOqFYlqcYZKxFGFPn-5" target="OJPGdNxAV1vjpA2we-XX-10" edge="1">
                    <mxGeometry width="160" relative="1" as="geometry">
                        <mxPoint x="562.4499999999998" y="302.4999999999999" as="sourcePoint"/>
                        <mxPoint x="431.51" y="409.0000000000001" as="targetPoint"/>
                    </mxGeometry>
                </mxCell>
            </root>
        </mxGraphModel>
    </diagram>
</mxfile>